<?xml version="1.0" encoding="utf-8"?>
<!-- Generator: Adobe Illustrator 15.1.0, SVG Export Plug-In . SVG Version: 6.00 Build 0)  -->
<!DOCTYPE svg PUBLIC "-//W3C//DTD SVG 1.1//EN" "http://www.w3.org/Graphics/SVG/1.1/DTD/svg11.dtd">
<svg version="1.1" id="Layer_1" xmlns="http://www.w3.org/2000/svg" xmlns:xlink="http://www.w3.org/1999/xlink" x="0px" y="0px"
	 width="1311.682px" height="133px" viewBox="0 164.943 1311.682 133" enable-background="new 0 164.943 1311.682 133"
	 xml:space="preserve">
<g>
	<g>
		<path d="M573.185,199.136h-40.818c-12.656,0-22.865,6.225-30.625,18.672h63.516l-11.602,27.266H489.24
			c-1.693,4.688-2.539,8.477-2.539,11.367c0,1.875,0.364,3.373,1.094,4.492c1.744,2.604,6.133,3.906,13.164,3.906h44.297
			l-11.521,27.109h-41.76c-17.475,0-29.23-4.806-35.271-14.414c-2.839-4.506-4.258-9.896-4.258-16.172
			c0-8.1,2.368-17.722,7.107-28.868c9.453-22.239,21.067-38.138,34.845-47.695c12.267-8.489,27.499-12.734,45.702-12.734h44.609
			L573.185,199.136z"/>
		<path d="M625.873,231.88l14.187,60.069H604.28l-6.25-34.833l-37.042,34.833h-39.353l68.305-61.374l-14.022-58.51h35.193
			l6.914,31.665l33.739-31.665h38.488L625.873,231.88z"/>
		<path d="M722.7,252.886h-2.894c-0.626,0-1.264-0.052-1.915-0.156h-25.396l-16.664,39.219h-31.789l50.938-119.883h53.125
			c27.159,0,40.74,7.631,40.74,22.891c0,5.391-1.574,11.771-4.728,19.141c-5.47,12.891-13.701,22.67-24.694,29.336
			C749.008,249.735,736.766,252.886,722.7,252.886z M739.271,199.956H714.92l-10.656,25.078h22.115
			c12.607,0,20.918-4.713,24.929-14.141c1.693-4.01,2.162-6.719,1.407-8.125c-0.078-0.13-0.17-0.247-0.271-0.352
			C750.618,200.776,746.229,199.956,739.271,199.956z"/>
		<path d="M848.185,244.019l7.109,47.93h-33.611l-6.019-43.828H794.13l-18.622,43.828h-31.62l50.938-119.883h59.844
			c21.692,0,32.539,6.979,32.539,20.938c0,5.156-1.498,11.276-4.492,18.359C875.632,228.029,864.122,238.915,848.185,244.019z
			 M840.56,199.956h-25.795l-8.747,20.586h22.433c6.979,0,11.802-0.533,14.459-1.602c3.882-1.563,6.969-5.052,9.261-10.469
			c1.511-3.516,1.798-5.638,0.86-6.367C851.23,200.673,847.073,199.956,840.56,199.956z"/>
		<g>
			<path d="M933.263,199.136h40.82l11.523-27.07h-44.609c-18.203,0-33.438,4.245-45.703,12.734
				c-13.776,9.558-25.391,25.456-34.844,47.695c-4.74,11.146-7.109,20.769-7.109,28.867c0,6.276,1.419,11.667,4.258,16.173
				c6.041,9.608,17.801,14.414,35.273,14.414h41.758l11.523-27.109h-44.297c-7.031,0-11.422-1.303-13.164-3.906
				c-0.729-1.119-1.096-2.617-1.096-4.492c0-2.891,0.848-6.68,2.539-11.367h64.414l11.604-27.266h-63.518
				C910.396,205.36,920.606,199.136,933.263,199.136z"/>
			<rect x="502.619" y="172" width="43.75" height="8.636"/>
			<rect x="464.807" y="283.313" width="43.75" height="8.636"/>
		</g>
		<path d="M1081.817,199.8h-60c-10.573,0-17.646,4.18-21.211,12.539c-0.573,1.354-0.859,2.475-0.859,3.359
			c0,2.266,2.344,3.398,7.031,3.398h30.702c11.821,0,19.946,1.732,24.375,5.195c3.983,3.151,5.978,7.644,5.978,13.477
			c0,5.104-1.522,11.237-4.57,18.398c-5.286,12.475-12.604,21.602-21.952,27.382c-9.036,5.6-20.548,8.398-34.53,8.398h-67.932
			l11.76-27.734h60.818c5.393,0,9.52-0.649,12.384-1.953c3.41-1.509,5.949-4.229,7.616-8.163c1.146-2.734,1.627-4.635,1.445-5.703
			c-0.053-0.26-0.131-0.455-0.234-0.586c-0.989-1.094-3.854-1.641-8.594-1.641h-27.383c-20.703,0-31.056-6.875-31.056-20.625
			c0-4.974,1.405-10.768,4.22-17.383c10.208-24.063,29.075-36.094,56.602-36.094h67.188L1081.817,199.8z"/>
		<path d="M1129.161,199.8h60l4.048-9.516l-13.487-18.219h-45.951c-27.524,0-46.394,12.031-56.602,36.094
			c-2.813,6.615-4.219,12.409-4.219,17.383c0,13.75,10.352,20.625,31.055,20.625h27.383c4.739,0,7.604,0.547,8.595,1.641
			c0.104,0.131,0.183,0.326,0.233,0.586c0.183,1.068-0.3,2.969-1.444,5.703c-1.668,3.933-4.207,6.654-7.616,8.164
			c-2.865,1.303-6.992,1.953-12.384,1.953h-60.819l-11.758,27.734h67.93c13.984,0,25.494-2.801,34.531-8.398
			c9.349-5.781,16.666-14.908,21.953-27.383c3.047-7.161,4.568-13.294,4.568-18.398c0-5.833-1.991-10.325-5.977-13.477
			c-4.429-3.463-12.554-5.195-24.375-5.195h-30.703c-4.688,0-7.031-1.133-7.031-3.398c0-0.885,0.286-2.005,0.859-3.359
			C1111.518,203.979,1118.588,199.8,1129.161,199.8z"/>
		<g id="Burn" display="none">
			<polygon display="inline" points="771.424,227.969 648.68,509.14 660.69,514.384 766.798,282.419 667.197,517.224 
				678.541,522.175 801.283,241.005 			"/>
			<g id="EXPRESS_LIVE_TEXT">
				<path display="inline" d="M571.968,199.657h-40.818c-12.656,0-22.865,6.225-30.625,18.672h63.516l-11.602,27.266h-64.414
					c-1.693,4.688-2.539,8.478-2.539,11.367c0,1.875,0.363,3.373,1.094,4.493c1.744,2.604,6.133,3.905,13.164,3.905h44.297
					l-11.522,27.109h-41.759c-17.475,0-29.23-4.806-35.271-14.414c-2.839-4.505-4.258-9.896-4.258-16.173
					c0-8.098,2.367-17.72,7.107-28.866c9.453-22.239,21.067-38.138,34.844-47.695c12.268-8.489,27.5-12.734,45.703-12.734h44.609
					L571.968,199.657z"/>
				<path display="inline" d="M624.656,232.401l14.187,60.067h-35.778l-6.25-34.832l-37.042,34.832H520.42l68.304-61.372
					l-14.021-58.51h35.192l6.914,31.665l33.74-31.665h38.488L624.656,232.401z"/>
				<path display="inline" d="M721.483,253.407h-2.894c-0.626,0-1.264-0.052-1.915-0.156H691.28l-16.664,39.219h-31.789
					l50.938-119.883h53.125c27.16,0,40.741,7.631,40.741,22.891c0,5.391-1.575,11.771-4.728,19.141
					c-5.471,12.891-13.701,22.67-24.694,29.336C747.791,250.256,735.549,253.407,721.483,253.407z M738.055,200.477h-24.351
					l-10.656,25.078h22.115c12.606,0,20.918-4.713,24.929-14.141c1.693-4.01,2.162-6.719,1.407-8.125
					c-0.078-0.13-0.17-0.247-0.272-0.352C749.401,201.297,745.012,200.477,738.055,200.477z"/>
				<path display="inline" d="M846.968,244.54l7.109,47.93h-33.611l-6.019-43.828h-21.534l-18.622,43.828h-31.62l50.938-119.883
					h59.844c21.691,0,32.539,6.979,32.539,20.938c0,5.156-1.498,11.276-4.492,18.359C874.415,228.55,862.905,239.436,846.968,244.54
					z M839.343,200.477h-25.795l-8.747,20.586h22.433c6.979,0,11.802-0.533,14.459-1.602c3.882-1.563,6.969-5.052,9.261-10.469
					c1.511-3.516,1.798-5.638,0.859-6.367C850.014,201.194,845.856,200.477,839.343,200.477z"/>
				<path display="inline" d="M972.866,199.657h-40.82c-12.655,0-22.864,6.225-30.625,18.672h63.517l-11.603,27.266h-64.414
					c-1.692,4.688-2.539,8.478-2.539,11.367c0,1.875,0.364,3.373,1.095,4.493c1.744,2.604,6.134,3.905,13.164,3.905h44.297
					l-11.522,27.109h-41.758c-17.476,0-29.232-4.806-35.273-14.414c-2.839-4.505-4.258-9.896-4.258-16.173
					c0-8.098,2.369-17.72,7.109-28.866c9.452-22.239,21.065-38.138,34.844-47.695c12.266-8.489,27.5-12.734,45.703-12.734h44.608
					L972.866,199.657z"/>
				<path display="inline" d="M1080.601,200.321h-60c-10.572,0-17.645,4.18-21.211,12.539c-0.572,1.354-0.858,2.475-0.858,3.359
					c0,2.266,2.344,3.398,7.03,3.398h30.702c11.822,0,19.947,1.732,24.375,5.195c3.984,3.151,5.979,7.644,5.979,13.477
					c0,5.104-1.522,11.237-4.57,18.398c-5.286,12.475-12.604,21.602-21.952,27.383c-9.037,5.6-20.548,8.398-34.53,8.398h-67.932
					l11.759-27.734h60.819c5.392,0,9.519-0.65,12.384-1.953c3.41-1.51,5.949-4.23,7.616-8.164c1.146-2.734,1.627-4.635,1.445-5.703
					c-0.054-0.26-0.131-0.455-0.234-0.586c-0.989-1.094-3.854-1.641-8.594-1.641h-27.383c-20.703,0-31.057-6.875-31.057-20.625
					c0-4.974,1.406-10.768,4.221-17.383c10.207-24.063,29.074-36.094,56.602-36.094h67.188L1080.601,200.321z"/>
				<path display="inline" d="M1187.944,200.321h-60c-10.573,0-17.646,4.18-21.212,12.539c-0.572,1.354-0.858,2.475-0.858,3.359
					c0,2.266,2.344,3.398,7.031,3.398h30.702c11.821,0,19.946,1.732,24.375,5.195c3.983,3.151,5.978,7.644,5.978,13.477
					c0,5.104-1.522,11.237-4.569,18.398c-5.287,12.475-12.604,21.602-21.953,27.383c-9.036,5.6-20.547,8.398-34.53,8.398h-67.931
					l11.759-27.734h60.819c5.392,0,9.519-0.65,12.383-1.953c3.411-1.51,5.949-4.23,7.617-8.164c1.146-2.734,1.627-4.635,1.444-5.703
					c-0.053-0.26-0.131-0.455-0.233-0.586c-0.99-1.094-3.854-1.641-8.595-1.641h-27.383c-20.703,0-31.056-6.875-31.056-20.625
					c0-4.974,1.405-10.768,4.22-17.383c10.208-24.063,29.074-36.094,56.602-36.094h67.188L1187.944,200.321z"/>
			</g>
		</g>
	</g>
	<g>
		<polygon points="1180.691,172.065 1158.938,172.065 1202.446,232.372 1158.938,292.68 1180.691,292.68 1224.199,232.238 		"/>
		<polygon points="1211.146,172.065 1189.395,172.065 1232.901,232.372 1189.395,292.68 1211.146,292.68 1254.656,232.238 		"/>
		<polygon points="1241.604,172.065 1219.849,172.065 1263.357,232.372 1219.849,292.68 1241.604,292.68 1285.11,232.238 		"/>
	</g>
	<text transform="matrix(1 0 0 1 1269.6826 189.3354)" font-family="'AmarilloUSAF'" font-size="21.6663">TM</text>
	<g id="MAXX">
		<g id="Maxx_Outline">
			
				<radialGradient id="SVGID_1_" cx="75.1445" cy="216.4463" r="51.3059" gradientTransform="matrix(1 0 0 1 0 45.7715)" gradientUnits="userSpaceOnUse">
				<stop  offset="0" style="stop-color:#FFDE17"/>
				<stop  offset="0.0608" style="stop-color:#FFCB1D"/>
				<stop  offset="0.1969" style="stop-color:#FAA422"/>
				<stop  offset="0.3346" style="stop-color:#F58323"/>
				<stop  offset="0.4714" style="stop-color:#F26723"/>
				<stop  offset="0.607" style="stop-color:#F04D24"/>
				<stop  offset="0.741" style="stop-color:#EE3724"/>
				<stop  offset="0.8728" style="stop-color:#EE2424"/>
				<stop  offset="1" style="stop-color:#ED1C24"/>
			</radialGradient>
			<polygon fill="url(#SVGID_1_)" points="42.099,291.949 67.124,233.05 62.012,291.949 95.256,291.949 135.328,238.938 
				112.788,291.949 135.025,291.949 137.548,288.949 136.437,288.949 134.998,288.949 133.558,288.949 132.119,288.949 
				130.68,288.949 129.241,288.949 127.801,288.949 126.362,288.949 124.923,288.949 123.484,288.949 122.044,288.949 
				120.605,288.949 119.167,288.949 117.727,288.949 117.323,288.949 117.727,288 119.167,284.613 120.605,281.229 122.044,277.845 
				123.484,274.458 124.923,271.074 126.362,267.69 127.801,264.306 129.241,260.921 130.68,257.535 132.119,254.151 
				133.558,250.767 134.998,247.382 136.437,243.997 137.876,240.612 139.315,237.228 140.754,233.843 141.331,232.487 
				136.444,232.487 136.437,232.496 134.998,234.4 133.558,236.305 132.119,238.208 130.68,240.112 129.241,242.016 127.801,243.92 
				126.362,245.824 124.923,247.728 123.484,249.632 122.044,251.536 120.605,253.439 119.167,255.343 117.727,257.247 
				116.288,259.151 114.849,261.055 113.41,262.958 111.97,264.863 110.531,266.767 109.092,268.669 107.653,270.574 
				106.213,272.479 104.774,274.382 103.335,276.287 101.896,278.189 100.457,280.093 99.017,281.998 97.578,283.901 
				96.139,285.805 94.7,287.708 93.763,288.949 93.26,288.949 91.821,288.949 90.382,288.949 88.943,288.949 87.503,288.949 
				86.064,288.949 84.625,288.949 83.186,288.949 81.747,288.949 80.308,288.949 78.869,288.949 77.429,288.949 75.99,288.949 
				74.551,288.949 73.112,288.949 71.672,288.949 70.233,288.949 68.794,288.949 67.355,288.949 65.916,288.949 65.283,288.949 
				65.916,281.664 67.355,265.08 68.794,248.502 70.184,232.487 64.104,232.487 63.037,234.997 61.598,238.383 60.159,241.771 
				58.719,245.159 57.28,248.546 55.841,251.933 54.402,255.32 52.962,258.708 51.523,262.095 50.084,265.481 48.645,268.871 
				47.206,272.257 45.767,275.644 44.328,279.031 42.888,282.417 41.449,285.806 40.114,288.949 40.01,288.949 38.571,288.949 
				37.131,288.949 35.692,288.949 34.253,288.949 32.814,288.949 31.375,288.949 29.935,288.949 28.496,288.949 27.057,288.949 
				25.618,288.949 24.178,288.949 22.739,288.949 21.3,288.949 19.861,288.949 18.421,288.949 16.982,288.949 15.543,288.949 
				14.104,288.949 13.493,288.949 14.104,287.509 15.543,284.123 16.982,280.735 18.421,277.349 19.861,273.96 21.3,270.574 
				22.739,267.187 24.178,263.8 25.618,260.412 27.057,257.024 28.496,253.638 29.935,250.251 31.375,246.863 32.814,243.475 
				34.253,240.089 35.692,236.702 37.131,233.314 37.483,232.487 34.223,232.487 8.958,291.949 			"/>
			
				<radialGradient id="SVGID_2_" cx="187.5508" cy="216.4463" r="42.771" gradientTransform="matrix(1 0 0 1 0 45.7715)" gradientUnits="userSpaceOnUse">
				<stop  offset="0" style="stop-color:#FFDE17"/>
				<stop  offset="0.0608" style="stop-color:#FFCB1D"/>
				<stop  offset="0.1969" style="stop-color:#FAA422"/>
				<stop  offset="0.3346" style="stop-color:#F58323"/>
				<stop  offset="0.4714" style="stop-color:#F26723"/>
				<stop  offset="0.607" style="stop-color:#F04D24"/>
				<stop  offset="0.741" style="stop-color:#EE3724"/>
				<stop  offset="0.8728" style="stop-color:#EE2424"/>
				<stop  offset="1" style="stop-color:#ED1C24"/>
			</radialGradient>
			<polygon fill="url(#SVGID_2_)" points="149.395,274.677 149.238,274.865 147.799,276.576 146.359,278.287 144.92,280 
				143.481,281.71 142.042,283.421 140.603,285.134 139.163,286.846 137.724,288.558 137.396,288.949 134.874,291.949 
				145.311,291.949 173.429,291.949 194.617,265.074 234.779,265.074 233.725,291.949 236.888,291.949 240.227,288.949 
				239.399,288.949 238.375,288.949 237.352,288.949 236.845,288.949 237.352,276.021 237.899,262.074 237.352,262.074 
				236.329,262.074 235.306,262.074 234.282,262.074 233.259,262.074 232.236,262.074 231.212,262.074 230.189,262.074 
				229.166,262.074 228.143,262.074 227.119,262.074 226.096,262.074 225.073,262.074 224.049,262.074 223.026,262.074 
				222.003,262.074 220.979,262.074 219.957,262.074 218.933,262.074 217.91,262.074 216.887,262.074 215.863,262.074 
				214.84,262.074 213.817,262.074 212.793,262.074 211.77,262.074 210.747,262.074 209.724,262.074 208.7,262.074 207.677,262.074 
				206.654,262.074 205.63,262.074 204.607,262.074 203.584,262.074 202.561,262.074 201.538,262.074 200.514,262.074 
				199.491,262.074 198.468,262.074 197.444,262.074 196.421,262.074 195.398,262.074 194.375,262.074 193.351,262.074 
				193.162,262.074 192.328,263.13 191.305,264.429 190.281,265.727 189.258,267.024 188.235,268.322 187.211,269.621 
				186.188,270.917 185.165,272.216 184.142,273.515 183.119,274.812 182.095,276.11 181.072,277.408 180.049,278.707 
				179.025,280.003 178.002,281.302 176.979,282.6 175.956,283.898 174.932,285.196 173.909,286.494 172.886,287.792 
				171.974,288.949 171.862,288.949 170.839,288.949 169.816,288.949 168.792,288.949 167.769,288.949 166.746,288.949 
				165.723,288.949 164.699,288.949 163.676,288.949 162.653,288.949 161.629,288.949 160.606,288.949 159.583,288.949 
				158.56,288.949 157.537,288.949 156.513,288.949 155.49,288.949 154.467,288.949 153.443,288.949 152.42,288.949 
				151.397,288.949 150.374,288.949 149.35,288.949 148.327,288.949 147.304,288.949 146.28,288.949 145.257,288.949 
				144.234,288.949 143.327,288.949 143.21,288.949 142.188,288.949 141.315,288.949 142.188,287.912 143.21,286.694 
				144.234,285.477 145.257,284.259 146.28,283.042 147.304,281.826 148.327,280.608 149.35,279.392 150.374,278.173 
				151.397,276.957 152.42,275.74 153.443,274.523 154.467,273.306 155.49,272.089 156.513,270.873 157.537,269.656 158.56,268.438 
				159.583,267.221 160.606,266.003 161.629,264.787 162.653,263.57 163.676,262.353 164.699,261.136 165.723,259.918 
				166.746,258.701 167.769,257.484 168.792,256.268 169.816,255.05 170.839,253.833 171.862,252.616 172.886,251.399 
				173.909,250.182 174.932,248.965 175.956,247.748 176.979,246.53 178.002,245.314 179.025,244.097 180.049,242.879 
				181.072,241.663 182.095,240.445 183.119,239.228 184.142,238.012 185.165,236.794 186.188,235.577 187.211,234.36 
				188.235,233.143 188.787,232.487 184.867,232.487 155.99,266.833 			"/>
			
				<radialGradient id="SVGID_3_" cx="406.1187" cy="216.4463" r="46.0333" gradientTransform="matrix(1 0 0 1 0 45.7715)" gradientUnits="userSpaceOnUse">
				<stop  offset="0" style="stop-color:#FFDE17"/>
				<stop  offset="0.0608" style="stop-color:#FFCB1D"/>
				<stop  offset="0.1969" style="stop-color:#FAA422"/>
				<stop  offset="0.3346" style="stop-color:#F58323"/>
				<stop  offset="0.4714" style="stop-color:#F26723"/>
				<stop  offset="0.607" style="stop-color:#F04D24"/>
				<stop  offset="0.741" style="stop-color:#EE3724"/>
				<stop  offset="0.8728" style="stop-color:#EE2424"/>
				<stop  offset="1" style="stop-color:#ED1C24"/>
			</radialGradient>
			<polygon fill="url(#SVGID_3_)" points="378.644,264.595 378.343,264.867 377.319,265.787 376.296,266.705 375.273,267.625 
				374.25,268.544 373.226,269.464 372.203,270.382 371.18,271.302 370.156,272.222 369.133,273.141 368.11,274.061 367.086,274.98 
				366.063,275.9 365.04,276.819 364.017,277.74 362.994,278.658 361.97,279.578 360.947,280.498 359.924,281.417 358.9,282.335 
				357.877,283.255 356.854,284.175 355.831,285.095 354.807,286.014 353.784,286.934 352.761,287.853 351.737,288.772 
				351.542,288.949 348.203,291.949 381.573,291.949 392.063,291.949 427.521,258.604 433.503,291.949 460.695,291.949 
				464.034,288.949 462.771,288.949 461.454,288.949 460.136,288.949 458.819,288.949 457.502,288.949 456.185,288.949 
				454.867,288.949 453.55,288.949 452.232,288.949 450.915,288.949 449.598,288.949 448.281,288.949 446.963,288.949 
				445.646,288.949 444.329,288.949 443.011,288.949 441.694,288.949 440.377,288.949 439.06,288.949 437.742,288.949 
				436.425,288.949 436.013,288.949 435.107,283.9 433.79,276.559 432.473,269.216 431.156,261.878 429.838,254.536 
				429.496,252.628 428.521,253.545 427.204,254.784 425.886,256.023 424.569,257.262 423.251,258.5 421.935,259.739 
				420.617,260.978 419.3,262.216 417.982,263.457 416.665,264.694 415.348,265.933 414.03,267.171 412.713,268.41 411.396,269.649 
				410.079,270.888 408.761,272.126 407.444,273.365 406.126,274.604 404.809,275.843 403.492,277.082 402.175,278.32 
				400.857,279.559 399.54,280.798 398.223,282.037 396.905,283.275 395.588,284.514 394.271,285.753 392.954,286.992 
				391.636,288.23 390.873,288.949 390.319,288.949 389.001,288.949 387.684,288.949 386.367,288.949 385.049,288.949 
				383.732,288.949 382.415,288.949 381.098,288.949 379.78,288.949 378.581,288.949 378.463,288.949 377.146,288.949 
				375.828,288.949 374.511,288.949 373.194,288.949 371.876,288.949 370.559,288.949 369.242,288.949 367.924,288.949 
				366.607,288.949 365.29,288.949 363.973,288.949 362.655,288.949 361.338,288.949 360.021,288.949 358.703,288.949 
				357.386,288.949 356.069,288.949 356.03,288.949 356.069,288.914 357.386,287.73 358.703,286.546 360.021,285.363 
				361.338,284.179 362.655,282.996 363.973,281.812 365.29,280.628 366.607,279.445 367.924,278.261 369.242,277.078 
				370.559,275.894 371.876,274.71 373.194,273.526 374.511,272.341 375.828,271.16 377.146,269.975 378.463,268.792 
				379.78,267.608 381.098,266.423 382.415,265.24 383.732,264.057 385.049,262.873 386.367,261.689 387.684,260.506 
				389.001,259.322 390.319,258.138 391.636,256.955 392.954,255.771 394.271,254.588 395.588,253.404 396.905,252.22 
				398.223,251.037 399.54,249.853 400.857,248.669 402.175,247.485 403.492,246.302 404.809,245.118 406.126,243.935 
				407.444,242.751 408.761,241.567 410.079,240.383 411.396,239.2 412.713,238.016 414.03,236.833 415.348,235.649 
				416.665,234.465 417.982,233.281 418.867,232.487 414.377,232.487 381.651,261.894 			"/>
			
				<radialGradient id="SVGID_4_" cx="293.2856" cy="216.4463" r="46.0333" gradientTransform="matrix(1 0 0 1 0 45.7715)" gradientUnits="userSpaceOnUse">
				<stop  offset="0" style="stop-color:#FFDE17"/>
				<stop  offset="0.0608" style="stop-color:#FFCB1D"/>
				<stop  offset="0.1969" style="stop-color:#FAA422"/>
				<stop  offset="0.3346" style="stop-color:#F58323"/>
				<stop  offset="0.4714" style="stop-color:#F26723"/>
				<stop  offset="0.607" style="stop-color:#F04D24"/>
				<stop  offset="0.741" style="stop-color:#EE3724"/>
				<stop  offset="0.8728" style="stop-color:#EE2424"/>
				<stop  offset="1" style="stop-color:#ED1C24"/>
			</radialGradient>
			<polygon fill="url(#SVGID_4_)" points="265.811,264.595 265.51,264.867 264.486,265.787 263.463,266.705 262.44,267.625 
				261.417,268.544 260.393,269.464 259.37,270.382 258.347,271.302 257.323,272.222 256.3,273.141 255.277,274.061 254.253,274.98 
				253.23,275.9 252.207,276.819 251.184,277.74 250.161,278.658 249.137,279.578 248.114,280.498 247.091,281.417 246.067,282.335 
				245.044,283.255 244.021,284.175 242.998,285.095 241.974,286.014 240.951,286.934 239.928,287.853 238.904,288.772 
				238.709,288.949 235.37,291.949 268.74,291.949 279.229,291.949 314.688,258.604 320.67,291.949 347.862,291.949 
				351.201,288.949 349.938,288.949 348.621,288.949 347.303,288.949 345.986,288.949 344.669,288.949 343.352,288.949 
				342.034,288.949 340.717,288.949 339.399,288.949 338.082,288.949 336.765,288.949 335.448,288.949 334.13,288.949 
				332.813,288.949 331.496,288.949 330.178,288.949 328.861,288.949 327.544,288.949 326.227,288.949 324.909,288.949 
				323.592,288.949 323.18,288.949 322.274,283.9 320.957,276.559 319.64,269.216 318.323,261.878 317.005,254.536 316.663,252.628 
				315.688,253.545 314.371,254.784 313.053,256.023 311.736,257.262 310.418,258.5 309.102,259.739 307.784,260.978 
				306.467,262.216 305.149,263.457 303.832,264.694 302.515,265.933 301.197,267.171 299.88,268.41 298.563,269.649 
				297.246,270.888 295.928,272.126 294.611,273.365 293.293,274.604 291.976,275.843 290.659,277.082 289.342,278.32 
				288.024,279.559 286.707,280.798 285.39,282.037 284.072,283.275 282.755,284.514 281.438,285.753 280.121,286.992 
				278.803,288.23 278.04,288.949 277.486,288.949 276.168,288.949 274.851,288.949 273.534,288.949 272.216,288.949 
				270.899,288.949 269.582,288.949 268.265,288.949 266.947,288.949 265.748,288.949 265.63,288.949 264.313,288.949 
				262.995,288.949 261.678,288.949 260.361,288.949 259.043,288.949 257.726,288.949 256.409,288.949 255.091,288.949 
				253.774,288.949 252.457,288.949 251.14,288.949 249.822,288.949 248.505,288.949 247.188,288.949 245.87,288.949 
				244.553,288.949 243.236,288.949 243.197,288.949 243.236,288.914 244.553,287.73 245.87,286.546 247.188,285.363 
				248.505,284.179 249.822,282.996 251.14,281.812 252.457,280.628 253.774,279.445 255.091,278.261 256.409,277.078 
				257.726,275.894 259.043,274.71 260.361,273.526 261.678,272.341 262.995,271.16 264.313,269.975 265.63,268.792 
				266.947,267.608 268.265,266.423 269.582,265.24 270.899,264.057 272.216,262.873 273.534,261.689 274.851,260.506 
				276.168,259.322 277.486,258.138 278.803,256.955 280.121,255.771 281.438,254.588 282.755,253.404 284.072,252.22 
				285.39,251.037 286.707,249.853 288.024,248.669 289.342,247.485 290.659,246.302 291.976,245.118 293.293,243.935 
				294.611,242.751 295.928,241.567 297.246,240.383 298.563,239.2 299.88,238.016 301.197,236.833 302.515,235.649 
				303.832,234.465 305.149,233.281 306.034,232.487 301.544,232.487 268.818,261.894 			"/>
		</g>
		
			<radialGradient id="SVGID_5_" cx="109.0674" cy="186.2354" r="77.7083" gradientTransform="matrix(1 0 0 1 0 45.7715)" gradientUnits="userSpaceOnUse">
			<stop  offset="0" style="stop-color:#F26522"/>
			<stop  offset="0.2419" style="stop-color:#F04D23"/>
			<stop  offset="0.4996" style="stop-color:#EE3724"/>
			<stop  offset="0.7542" style="stop-color:#EE2424"/>
			<stop  offset="1" style="stop-color:#ED1C24"/>
		</radialGradient>
		<path fill="url(#SVGID_5_)" d="M150.203,291.949h-29.415l26.415-62.125l-46.961,62.125H69.38l5.787-66.673l-28.328,66.673H16.958
			l50.938-119.884h41.172l-7.619,76.895l58.028-76.895h41.7L150.203,291.949z"/>
		
			<radialGradient id="SVGID_6_" cx="209.4688" cy="186.2354" r="62.7774" gradientTransform="matrix(1 0 0 1 0 45.7715)" gradientUnits="userSpaceOnUse">
			<stop  offset="0" style="stop-color:#F26522"/>
			<stop  offset="0.2419" style="stop-color:#F04D23"/>
			<stop  offset="0.4996" style="stop-color:#EE3724"/>
			<stop  offset="0.7542" style="stop-color:#EE2424"/>
			<stop  offset="1" style="stop-color:#ED1C24"/>
		</radialGradient>
		<path fill="url(#SVGID_6_)" d="M274.646,291.949h-33.477l1.055-26.875h-42.45l-21.188,26.875h-34.607l100.795-119.884h30.185
			L274.646,291.949z M222.195,237.339h21.122l1.133-27.773L222.195,237.339z"/>
		
			<radialGradient id="SVGID_7_" cx="330.9941" cy="186.2354" r="73.1464" gradientTransform="matrix(1 0 0 1 0 45.7715)" gradientUnits="userSpaceOnUse">
			<stop  offset="0" style="stop-color:#F26522"/>
			<stop  offset="0.2419" style="stop-color:#F04D23"/>
			<stop  offset="0.4996" style="stop-color:#EE3724"/>
			<stop  offset="0.7542" style="stop-color:#EE2424"/>
			<stop  offset="1" style="stop-color:#ED1C24"/>
		</radialGradient>
		<path fill="url(#SVGID_7_)" d="M350.92,231.88l14.188,60.069h-35.779l-6.25-34.833l-37.041,34.833h-39.351l68.303-61.375
			l-14.022-58.509h35.193l6.913,31.665l33.741-31.665h38.486L350.92,231.88z"/>
		
			<radialGradient id="SVGID_8_" cx="443.4849" cy="186.2354" r="73.1467" gradientTransform="matrix(1 0 0 1 0 45.7715)" gradientUnits="userSpaceOnUse">
			<stop  offset="0" style="stop-color:#F26522"/>
			<stop  offset="0.2419" style="stop-color:#F04D23"/>
			<stop  offset="0.4996" style="stop-color:#EE3724"/>
			<stop  offset="0.7542" style="stop-color:#EE2424"/>
			<stop  offset="1" style="stop-color:#ED1C24"/>
		</radialGradient>
		<path fill="url(#SVGID_8_)" d="M463.412,231.88l14.187,60.069H441.82l-6.25-34.833l-37.041,34.833h-39.353l68.305-61.375
			l-14.022-58.509h35.193l6.913,31.665l33.739-31.665h38.488L463.412,231.88z"/>
	</g>
</g>
</svg>
