<?xml version="1.0" encoding="utf-8"?>
<!-- Generator: Adobe Illustrator 15.1.0, SVG Export Plug-In . SVG Version: 6.00 Build 0)  -->
<!DOCTYPE svg PUBLIC "-//W3C//DTD SVG 1.1//EN" "http://www.w3.org/Graphics/SVG/1.1/DTD/svg11.dtd">
<svg version="1.1" id="Layer_1" xmlns="http://www.w3.org/2000/svg" xmlns:xlink="http://www.w3.org/1999/xlink" x="0px" y="0px"
	 width="192.219px" height="119.884px" viewBox="8.958 172.065 192.219 119.884"
	 enable-background="new 8.958 172.065 192.219 119.884" xml:space="preserve">
<g id="MAXX">
	<g id="Maxx_Outline">
		
			<radialGradient id="SVGID_1_" cx="75.1445" cy="216.4463" r="51.3059" gradientTransform="matrix(1 0 0 1 0 45.7715)" gradientUnits="userSpaceOnUse">
			<stop  offset="0" style="stop-color:#FFDE17"/>
			<stop  offset="0.0608" style="stop-color:#FFCB1D"/>
			<stop  offset="0.1969" style="stop-color:#FAA422"/>
			<stop  offset="0.3346" style="stop-color:#F58323"/>
			<stop  offset="0.4714" style="stop-color:#F26723"/>
			<stop  offset="0.607" style="stop-color:#F04D24"/>
			<stop  offset="0.741" style="stop-color:#EE3724"/>
			<stop  offset="0.8728" style="stop-color:#EE2424"/>
			<stop  offset="1" style="stop-color:#ED1C24"/>
		</radialGradient>
		<polygon fill="url(#SVGID_1_)" points="42.099,291.949 67.124,233.05 62.012,291.949 95.256,291.949 135.328,238.938 
			112.788,291.949 135.025,291.949 137.548,288.949 136.437,288.949 134.998,288.949 133.558,288.949 132.119,288.949 
			130.68,288.949 129.241,288.949 127.801,288.949 126.362,288.949 124.923,288.949 123.484,288.949 122.044,288.949 
			120.605,288.949 119.167,288.949 117.727,288.949 117.323,288.949 117.727,288 119.167,284.613 120.605,281.229 122.044,277.845 
			123.484,274.458 124.923,271.074 126.362,267.69 127.801,264.306 129.241,260.921 130.68,257.535 132.119,254.151 
			133.558,250.767 134.998,247.382 136.437,243.997 137.876,240.612 139.315,237.228 140.754,233.843 141.331,232.487 
			136.444,232.487 136.437,232.496 134.998,234.4 133.558,236.305 132.119,238.208 130.68,240.112 129.241,242.016 127.801,243.92 
			126.362,245.824 124.923,247.728 123.484,249.632 122.044,251.536 120.605,253.439 119.167,255.343 117.727,257.247 
			116.288,259.151 114.849,261.055 113.41,262.958 111.97,264.863 110.531,266.767 109.092,268.669 107.653,270.574 
			106.213,272.479 104.774,274.382 103.335,276.287 101.896,278.189 100.457,280.093 99.017,281.998 97.578,283.901 96.139,285.805 
			94.7,287.708 93.763,288.949 93.26,288.949 91.821,288.949 90.382,288.949 88.943,288.949 87.503,288.949 86.064,288.949 
			84.625,288.949 83.186,288.949 81.747,288.949 80.308,288.949 78.869,288.949 77.429,288.949 75.99,288.949 74.551,288.949 
			73.112,288.949 71.672,288.949 70.233,288.949 68.794,288.949 67.355,288.949 65.916,288.949 65.283,288.949 65.916,281.664 
			67.355,265.08 68.794,248.502 70.184,232.487 64.104,232.487 63.037,234.997 61.598,238.383 60.159,241.771 58.719,245.159 
			57.28,248.546 55.841,251.933 54.402,255.32 52.962,258.708 51.523,262.095 50.084,265.481 48.645,268.871 47.206,272.257 
			45.767,275.644 44.328,279.031 42.888,282.417 41.449,285.806 40.114,288.949 40.01,288.949 38.571,288.949 37.131,288.949 
			35.692,288.949 34.253,288.949 32.814,288.949 31.375,288.949 29.935,288.949 28.496,288.949 27.057,288.949 25.618,288.949 
			24.178,288.949 22.739,288.949 21.3,288.949 19.861,288.949 18.421,288.949 16.982,288.949 15.543,288.949 14.104,288.949 
			13.493,288.949 14.104,287.509 15.543,284.123 16.982,280.735 18.421,277.349 19.861,273.96 21.3,270.574 22.739,267.187 
			24.178,263.8 25.618,260.412 27.057,257.024 28.496,253.638 29.935,250.251 31.375,246.863 32.814,243.475 34.253,240.089 
			35.692,236.702 37.131,233.314 37.483,232.487 34.223,232.487 8.958,291.949 		"/>
	</g>
	
		<radialGradient id="SVGID_2_" cx="109.0674" cy="186.2354" r="77.7083" gradientTransform="matrix(1 0 0 1 0 45.7715)" gradientUnits="userSpaceOnUse">
		<stop  offset="0" style="stop-color:#F26522"/>
		<stop  offset="0.2419" style="stop-color:#F04D23"/>
		<stop  offset="0.4996" style="stop-color:#EE3724"/>
		<stop  offset="0.7542" style="stop-color:#EE2424"/>
		<stop  offset="1" style="stop-color:#ED1C24"/>
	</radialGradient>
	<path fill="url(#SVGID_2_)" d="M150.203,291.949h-29.415l26.415-62.125l-46.961,62.125H69.38l5.787-66.673l-28.328,66.673H16.958
		l50.938-119.884h41.172l-7.619,76.895l58.028-76.895h41.7L150.203,291.949z"/>
</g>
</svg>
