<?xml version="1.0" encoding="utf-8"?>
<!-- Generator: Adobe Illustrator 15.1.0, SVG Export Plug-In . SVG Version: 6.00 Build 0)  -->
<!DOCTYPE svg PUBLIC "-//W3C//DTD SVG 1.1//EN" "http://www.w3.org/Graphics/SVG/1.1/DTD/svg11.dtd">
<svg version="1.1" id="Layer_1" xmlns="http://www.w3.org/2000/svg" xmlns:xlink="http://www.w3.org/1999/xlink" x="0px" y="0px"
	 width="1311.682px" height="520.886px" viewBox="0 172 1311.682 520.886" enable-background="new 0 172 1311.682 520.886"
	 xml:space="preserve">
<g>
	<g>
		<path d="M573.185,199.136h-40.819c-12.656,0-22.865,6.225-30.625,18.672h63.516l-11.602,27.266H489.24
			c-1.693,4.688-2.539,8.477-2.539,11.367c0,1.875,0.364,3.373,1.094,4.492c1.744,2.604,6.133,3.906,13.164,3.906h44.297
			l-11.522,27.109h-41.759c-17.475,0-29.231-4.805-35.272-14.414c-2.839-4.505-4.258-9.896-4.258-16.172
			c0-8.099,2.368-17.721,7.108-28.867c9.453-22.239,21.067-38.138,34.844-47.695c12.267-8.489,27.5-12.734,45.703-12.734h44.609
			L573.185,199.136z"/>
		<path d="M625.873,231.88l14.187,60.068H604.28l-6.25-34.832l-37.042,34.832h-39.352l68.304-61.373l-14.022-58.51h35.193
			l6.914,31.665l33.74-31.665h38.488L625.873,231.88z"/>
		<path d="M722.7,252.886h-2.893c-0.626,0-1.264-0.052-1.915-0.156h-25.396l-16.664,39.219h-31.789l50.938-119.883h53.125
			c27.16,0,40.741,7.631,40.741,22.891c0,5.391-1.575,11.771-4.728,19.141c-5.47,12.891-13.701,22.67-24.694,29.336
			C749.008,249.735,736.766,252.886,722.7,252.886z M739.271,199.956h-24.351l-10.656,25.078h22.115
			c12.607,0,20.918-4.713,24.929-14.141c1.693-4.01,2.162-6.719,1.407-8.125c-0.078-0.13-0.17-0.247-0.272-0.352
			C750.618,200.776,746.229,199.956,739.271,199.956z"/>
		<path d="M848.185,244.019l7.109,47.93h-33.611l-6.019-43.828H794.13l-18.622,43.828h-31.62l50.938-119.883h59.844
			c21.692,0,32.539,6.979,32.539,20.938c0,5.156-1.498,11.276-4.492,18.359C875.632,228.029,864.122,238.915,848.185,244.019z
			 M840.56,199.956h-25.795l-8.747,20.586h22.432c6.98,0,11.802-0.533,14.459-1.602c3.882-1.563,6.969-5.052,9.261-10.469
			c1.511-3.516,1.798-5.638,0.86-6.367C851.23,200.673,847.073,199.956,840.56,199.956z"/>
		<g>
			<path d="M933.263,199.136h40.82l11.523-27.07h-44.609c-18.203,0-33.438,4.245-45.703,12.734
				c-13.776,9.558-25.391,25.456-34.844,47.695c-4.74,11.146-7.109,20.769-7.109,28.867c0,6.276,1.419,11.667,4.258,16.172
				c6.041,9.609,17.8,14.414,35.273,14.414h41.758l11.523-27.109h-44.297c-7.031,0-11.421-1.302-13.164-3.906
				c-0.729-1.119-1.095-2.617-1.095-4.492c0-2.891,0.847-6.68,2.539-11.367h64.414l11.603-27.266h-63.517
				C910.396,205.36,920.606,199.136,933.263,199.136z"/>
			<rect x="502.619" y="172" width="43.75" height="8.636"/>
			<rect x="464.807" y="283.313" width="43.75" height="8.636"/>
		</g>
		<path d="M1081.817,199.8h-60c-10.573,0-17.645,4.18-21.211,12.539c-0.573,1.354-0.859,2.475-0.859,3.359
			c0,2.266,2.344,3.398,7.031,3.398h30.702c11.822,0,19.947,1.732,24.375,5.195c3.984,3.151,5.978,7.644,5.978,13.477
			c0,5.104-1.522,11.237-4.57,18.398c-5.286,12.475-12.604,21.602-21.952,27.383c-9.037,5.599-20.548,8.398-34.531,8.398h-67.931
			l11.759-27.734h60.819c5.392,0,9.519-0.65,12.384-1.953c3.41-1.51,5.949-4.23,7.616-8.164c1.146-2.734,1.627-4.635,1.445-5.703
			c-0.053-0.26-0.131-0.455-0.234-0.586c-0.989-1.094-3.854-1.641-8.594-1.641h-27.383c-20.703,0-31.056-6.875-31.056-20.625
			c0-4.974,1.406-10.768,4.22-17.383c10.208-24.063,29.075-36.094,56.602-36.094h67.188L1081.817,199.8z"/>
		<path d="M1129.161,199.8h60l4.048-9.516l-13.487-18.219h-45.951c-27.525,0-46.394,12.031-56.602,36.094
			c-2.813,6.615-4.219,12.409-4.219,17.383c0,13.75,10.352,20.625,31.055,20.625h27.383c4.739,0,7.604,0.547,8.595,1.641
			c0.104,0.131,0.182,0.326,0.233,0.586c0.183,1.068-0.3,2.969-1.444,5.703c-1.668,3.933-4.207,6.654-7.617,8.164
			c-2.865,1.303-6.992,1.953-12.383,1.953h-60.82l-11.758,27.734h67.93c13.984,0,25.494-2.8,34.531-8.398
			c9.349-5.781,16.666-14.908,21.953-27.383c3.047-7.161,4.569-13.294,4.569-18.398c0-5.833-1.991-10.325-5.977-13.477
			c-4.429-3.463-12.554-5.195-24.375-5.195h-30.703c-4.688,0-7.031-1.133-7.031-3.398c0-0.885,0.286-2.005,0.859-3.359
			C1111.518,203.979,1118.588,199.8,1129.161,199.8z"/>
		<g id="Burn">
			<polygon points="771.424,227.969 648.68,509.14 660.69,514.384 766.798,282.42 667.197,517.224 678.541,522.175 801.283,241.005 
							"/>
			<g id="EXPRESS_LIVE_TEXT" display="none">
				<path display="inline" d="M571.968,199.657h-40.819c-12.656,0-22.865,6.225-30.625,18.672h63.516l-11.602,27.266h-64.414
					c-1.693,4.688-2.539,8.477-2.539,11.367c0,1.875,0.364,3.373,1.094,4.492c1.744,2.604,6.133,3.906,13.164,3.906h44.297
					l-11.522,27.109h-41.759c-17.475,0-29.231-4.805-35.272-14.414c-2.839-4.505-4.258-9.896-4.258-16.172
					c0-8.099,2.368-17.721,7.108-28.867c9.453-22.239,21.067-38.138,34.844-47.695c12.267-8.489,27.5-12.734,45.703-12.734h44.609
					L571.968,199.657z"/>
				<path display="inline" d="M624.656,232.401l14.187,60.068h-35.779l-6.25-34.832l-37.042,34.832H520.42l68.304-61.373
					l-14.022-58.51h35.193l6.914,31.665l33.74-31.665h38.488L624.656,232.401z"/>
				<path display="inline" d="M721.483,253.407h-2.893c-0.626,0-1.264-0.052-1.915-0.156H691.28l-16.664,39.219h-31.789
					l50.938-119.883h53.125c27.16,0,40.741,7.631,40.741,22.891c0,5.391-1.575,11.771-4.728,19.141
					c-5.47,12.891-13.701,22.67-24.694,29.336C747.791,250.256,735.549,253.407,721.483,253.407z M738.055,200.477h-24.351
					l-10.656,25.078h22.115c12.607,0,20.918-4.713,24.929-14.141c1.693-4.01,2.162-6.719,1.407-8.125
					c-0.078-0.13-0.17-0.247-0.272-0.352C749.401,201.297,745.012,200.477,738.055,200.477z"/>
				<path display="inline" d="M846.968,244.54l7.109,47.93h-33.611l-6.019-43.828h-21.534l-18.622,43.828h-31.62l50.938-119.883
					h59.844c21.692,0,32.539,6.979,32.539,20.938c0,5.156-1.498,11.276-4.492,18.359C874.415,228.55,862.905,239.436,846.968,244.54
					z M839.343,200.477h-25.795l-8.747,20.586h22.432c6.98,0,11.802-0.533,14.459-1.602c3.882-1.563,6.969-5.052,9.261-10.469
					c1.511-3.516,1.798-5.638,0.86-6.367C850.014,201.194,845.856,200.477,839.343,200.477z"/>
				<path display="inline" d="M972.866,199.657h-40.82c-12.655,0-22.864,6.225-30.625,18.672h63.517l-11.603,27.266h-64.414
					c-1.692,4.688-2.539,8.477-2.539,11.367c0,1.875,0.364,3.373,1.095,4.492c1.744,2.604,6.133,3.906,13.164,3.906h44.297
					l-11.523,27.109h-41.758c-17.475,0-29.232-4.805-35.273-14.414c-2.839-4.505-4.258-9.896-4.258-16.172
					c0-8.099,2.369-17.721,7.109-28.867c9.453-22.239,21.066-38.138,34.844-47.695c12.266-8.489,27.5-12.734,45.703-12.734h44.609
					L972.866,199.657z"/>
				<path display="inline" d="M1080.601,200.321h-60c-10.573,0-17.645,4.18-21.211,12.539c-0.573,1.354-0.859,2.475-0.859,3.359
					c0,2.266,2.344,3.398,7.031,3.398h30.702c11.822,0,19.947,1.732,24.375,5.195c3.984,3.151,5.978,7.644,5.978,13.477
					c0,5.104-1.522,11.237-4.57,18.398c-5.286,12.475-12.604,21.602-21.952,27.383c-9.037,5.599-20.548,8.398-34.531,8.398h-67.931
					l11.759-27.734h60.819c5.392,0,9.519-0.65,12.384-1.953c3.41-1.51,5.949-4.23,7.616-8.164c1.146-2.734,1.627-4.635,1.445-5.703
					c-0.053-0.26-0.131-0.455-0.234-0.586c-0.989-1.094-3.854-1.641-8.594-1.641h-27.383c-20.703,0-31.056-6.875-31.056-20.625
					c0-4.974,1.406-10.768,4.22-17.383c10.208-24.063,29.075-36.094,56.602-36.094h67.188L1080.601,200.321z"/>
				<path display="inline" d="M1187.944,200.321h-60c-10.573,0-17.645,4.18-21.211,12.539c-0.573,1.354-0.859,2.475-0.859,3.359
					c0,2.266,2.344,3.398,7.031,3.398h30.703c11.821,0,19.946,1.732,24.375,5.195c3.983,3.151,5.977,7.644,5.977,13.477
					c0,5.104-1.522,11.237-4.569,18.398c-5.287,12.475-12.604,21.602-21.953,27.383c-9.037,5.599-20.547,8.398-34.531,8.398h-67.93
					l11.758-27.734h60.82c5.391,0,9.518-0.65,12.383-1.953c3.411-1.51,5.949-4.23,7.617-8.164c1.146-2.734,1.627-4.635,1.444-5.703
					c-0.053-0.26-0.131-0.455-0.233-0.586c-0.99-1.094-3.854-1.641-8.595-1.641h-27.383c-20.703,0-31.055-6.875-31.055-20.625
					c0-4.974,1.405-10.768,4.219-17.383c10.208-24.063,29.075-36.094,56.602-36.094h67.188L1187.944,200.321z"/>
			</g>
		</g>
	</g>
	<g>
		<polygon points="1180.691,172.065 1158.938,172.065 1202.446,232.372 1158.938,292.68 1180.691,292.68 1224.199,232.238 		"/>
		<polygon points="1211.146,172.065 1189.395,172.065 1232.901,232.372 1189.395,292.68 1211.146,292.68 1254.656,232.238 		"/>
		<polygon points="1241.604,172.065 1219.849,172.065 1263.357,232.372 1219.849,292.68 1241.604,292.68 1285.11,232.238 		"/>
	</g>
	<text transform="matrix(1 0 0 1 1269.6826 189.3359)" font-family="'AmarilloUSAF'" font-size="21.6663">TM</text>
	<g id="Speedometer_Gauge">
		
			<radialGradient id="SVGID_1_" cx="426.667" cy="471.6592" r="37.1408" gradientTransform="matrix(1 0 0 -1 0 837.7715)" gradientUnits="userSpaceOnUse">
			<stop  offset="0" style="stop-color:#F26522"/>
			<stop  offset="0.2419" style="stop-color:#F04D23"/>
			<stop  offset="0.4996" style="stop-color:#EE3724"/>
			<stop  offset="0.7542" style="stop-color:#EE2424"/>
			<stop  offset="1" style="stop-color:#ED1C24"/>
		</radialGradient>
		<path fill="url(#SVGID_1_)" d="M424.284,408c10.926-5.015,22.306-9.313,34.072-12.82l-19.713-70.956
			c-15.363,7.076-29.967,15.527-43.666,25.186L424.284,408z"/>
		
			<radialGradient id="SVGID_2_" cx="352.7783" cy="416.3501" r="28.9442" gradientTransform="matrix(1 0 0 -1 0 837.7715)" gradientUnits="userSpaceOnUse">
			<stop  offset="0" style="stop-color:#F26522"/>
			<stop  offset="0.2419" style="stop-color:#F04D23"/>
			<stop  offset="0.4996" style="stop-color:#EE3724"/>
			<stop  offset="0.7542" style="stop-color:#EE2424"/>
			<stop  offset="1" style="stop-color:#ED1C24"/>
		</radialGradient>
		<path fill="url(#SVGID_2_)" d="M358.723,451.662c6.827-6.338,14.051-12.313,21.643-17.881l-32.33-42.6
			c-8.246,9.208-15.875,18.98-22.844,29.241L358.723,451.662z"/>
		
			<radialGradient id="SVGID_3_" cx="327.6245" cy="385.1426" r="22.2405" gradientTransform="matrix(1 0 0 -1 0 837.7715)" gradientUnits="userSpaceOnUse">
			<stop  offset="0" style="stop-color:#F26522"/>
			<stop  offset="0.2419" style="stop-color:#F04D23"/>
			<stop  offset="0.4996" style="stop-color:#EE3724"/>
			<stop  offset="0.7542" style="stop-color:#EE2424"/>
			<stop  offset="1" style="stop-color:#ED1C24"/>
		</radialGradient>
		<path fill="url(#SVGID_3_)" d="M337.1,474.607c4.128-5.018,8.469-9.877,13.024-14.557l-31.56-29.4
			c-4.877,7.906-9.362,16.08-13.439,24.491L337.1,474.607z"/>
		
			<radialGradient id="SVGID_4_" cx="311.4307" cy="355.7144" r="18.2276" gradientTransform="matrix(1 0 0 -1 0 837.7715)" gradientUnits="userSpaceOnUse">
			<stop  offset="0" style="stop-color:#F26522"/>
			<stop  offset="0.2419" style="stop-color:#F04D23"/>
			<stop  offset="0.4996" style="stop-color:#EE3724"/>
			<stop  offset="0.7542" style="stop-color:#EE2424"/>
			<stop  offset="1" style="stop-color:#ED1C24"/>
		</radialGradient>
		<path fill="url(#SVGID_4_)" d="M319.362,499.352c3.479-5.621,7.212-11.093,11.184-16.4l-29.876-18.188
			c-3.079,7.029-5.858,14.22-8.355,21.542L319.362,499.352z"/>
		
			<radialGradient id="SVGID_5_" cx="565.437" cy="494.0137" r="43.669" gradientTransform="matrix(1 0 0 -1 0 837.7715)" gradientUnits="userSpaceOnUse">
			<stop  offset="0" style="stop-color:#F26522"/>
			<stop  offset="0.2419" style="stop-color:#F04D23"/>
			<stop  offset="0.4996" style="stop-color:#EE3724"/>
			<stop  offset="0.7542" style="stop-color:#EE2424"/>
			<stop  offset="1" style="stop-color:#ED1C24"/>
		</radialGradient>
		<path fill="url(#SVGID_5_)" d="M526.262,384.234c4.156-0.132,8.337-0.172,12.542-0.113c15.444,0.216,30.538,1.732,45.167,4.415
			l23.997-84.327c-16.151-3.178-32.813-4.964-49.857-5.202c-11.916-0.167-23.665,0.423-35.204,1.724L526.262,384.234z"/>
		
			<radialGradient id="SVGID_6_" cx="384.9238" cy="445.9922" r="32.0241" gradientTransform="matrix(1 0 0 -1 0 837.7715)" gradientUnits="userSpaceOnUse">
			<stop  offset="0" style="stop-color:#F26522"/>
			<stop  offset="0.2419" style="stop-color:#F04D23"/>
			<stop  offset="0.4996" style="stop-color:#EE3724"/>
			<stop  offset="0.7542" style="stop-color:#EE2424"/>
			<stop  offset="1" style="stop-color:#ED1C24"/>
		</radialGradient>
		<path fill="url(#SVGID_6_)" d="M390.22,426.917c7.459-4.935,15.23-9.495,23.277-13.656l-28.32-56.62
			c-10.193,7.878-19.831,16.445-28.826,25.647L390.22,426.917z"/>
		
			<radialGradient id="SVGID_7_" cx="482.0176" cy="490.583" r="39.0537" gradientTransform="matrix(1 0 0 -1 0 837.7715)" gradientUnits="userSpaceOnUse">
			<stop  offset="0" style="stop-color:#F26522"/>
			<stop  offset="0.2419" style="stop-color:#F04D23"/>
			<stop  offset="0.4996" style="stop-color:#EE3724"/>
			<stop  offset="0.7542" style="stop-color:#EE2424"/>
			<stop  offset="1" style="stop-color:#ED1C24"/>
		</radialGradient>
		<path fill="url(#SVGID_7_)" d="M449.756,319.394l20.176,72.623c14.314-3.564,29.14-5.978,44.348-7.132l-3.318-82.525
			C489.667,305.705,469.164,311.471,449.756,319.394z"/>
		
			<radialGradient id="SVGID_8_" cx="289.2139" cy="200.9536" r="36.0734" gradientTransform="matrix(1 0 0 -1 0 837.7715)" gradientUnits="userSpaceOnUse">
			<stop  offset="0" style="stop-color:#F26522"/>
			<stop  offset="0.2419" style="stop-color:#F04D23"/>
			<stop  offset="0.4996" style="stop-color:#EE3724"/>
			<stop  offset="0.7542" style="stop-color:#EE2424"/>
			<stop  offset="1" style="stop-color:#ED1C24"/>
		</radialGradient>
		<path fill="url(#SVGID_8_)" d="M287.093,608.959c0.099-7.06,0.564-14.035,1.343-20.922l-10.667-0.935
			c1.426,35.212,9.458,68.76,22.889,99.431C291.523,662.24,286.713,636.121,287.093,608.959z"/>
		
			<radialGradient id="SVGID_9_" cx="284.0317" cy="259.5972" r="6.348" gradientTransform="matrix(1 0 0 -1 0 837.7715)" gradientUnits="userSpaceOnUse">
			<stop  offset="0" style="stop-color:#F26522"/>
			<stop  offset="0.2419" style="stop-color:#F04D23"/>
			<stop  offset="0.4996" style="stop-color:#EE3724"/>
			<stop  offset="0.7542" style="stop-color:#EE2424"/>
			<stop  offset="1" style="stop-color:#ED1C24"/>
		</radialGradient>
		<path fill="url(#SVGID_9_)" d="M290.519,573.835l-12.954-1.866c-0.052,3.829-0.001,7.637,0.102,11.431l11.208,0.98
			C289.339,580.839,289.882,577.322,290.519,573.835z"/>
		
			<radialGradient id="SVGID_10_" cx="654.0229" cy="471.5322" r="58.8651" gradientTransform="matrix(1 0 0 -1 0 837.7715)" gradientUnits="userSpaceOnUse">
			<stop  offset="0" style="stop-color:#F26522"/>
			<stop  offset="0.2419" style="stop-color:#F04D23"/>
			<stop  offset="0.4996" style="stop-color:#EE3724"/>
			<stop  offset="0.7542" style="stop-color:#EE2424"/>
			<stop  offset="1" style="stop-color:#ED1C24"/>
		</radialGradient>
		<path fill="url(#SVGID_10_)" d="M619.712,306.782l-23.956,84.185c30.021,6.92,57.863,18.841,82.432,34.73l34.103-77.17
			C684.702,329.295,653.428,314.959,619.712,306.782z"/>
		
			<radialGradient id="SVGID_11_" cx="285.3418" cy="273.0947" r="6.6971" gradientTransform="matrix(1 0 0 -1 0 837.7715)" gradientUnits="userSpaceOnUse">
			<stop  offset="0" style="stop-color:#F26522"/>
			<stop  offset="0.2419" style="stop-color:#F04D23"/>
			<stop  offset="0.4996" style="stop-color:#EE3724"/>
			<stop  offset="0.7542" style="stop-color:#EE2424"/>
			<stop  offset="1" style="stop-color:#ED1C24"/>
		</radialGradient>
		<path fill="url(#SVGID_11_)" d="M291.224,570.218c0.549-2.731,1.146-5.448,1.799-8.146l-14.979-2.937
			c-0.179,3.029-0.303,6.072-0.384,9.127L291.224,570.218z"/>
		
			<radialGradient id="SVGID_12_" cx="300.4824" cy="330.7251" r="15.8897" gradientTransform="matrix(1 0 0 -1 0 837.7715)" gradientUnits="userSpaceOnUse">
			<stop  offset="0" style="stop-color:#F26522"/>
			<stop  offset="0.2419" style="stop-color:#F04D23"/>
			<stop  offset="0.4996" style="stop-color:#EE3724"/>
			<stop  offset="0.7542" style="stop-color:#EE2424"/>
			<stop  offset="1" style="stop-color:#ED1C24"/>
		</radialGradient>
		<path fill="url(#SVGID_12_)" d="M306.787,522.698c2.97-6.414,6.247-12.677,9.819-18.771l-25.979-12.532
			c-2.41,7.546-4.504,15.232-6.27,23.047L306.787,522.698z"/>
		
			<radialGradient id="SVGID_13_" cx="288.0439" cy="288.3262" r="9.4084" gradientTransform="matrix(1 0 0 -1 0 837.7715)" gradientUnits="userSpaceOnUse">
			<stop  offset="0" style="stop-color:#F26522"/>
			<stop  offset="0.2419" style="stop-color:#F04D23"/>
			<stop  offset="0.4996" style="stop-color:#EE3724"/>
			<stop  offset="0.7542" style="stop-color:#EE2424"/>
			<stop  offset="1" style="stop-color:#ED1C24"/>
		</radialGradient>
		<path fill="url(#SVGID_13_)" d="M293.923,558.497c1.152-4.417,2.445-8.781,3.873-13.093l-18.001-5.011
			c-0.633,4.975-1.137,9.986-1.503,15.04L293.923,558.497z"/>
		
			<radialGradient id="SVGID_14_" cx="292.437" cy="306.9678" r="11.6512" gradientTransform="matrix(1 0 0 -1 0 837.7715)" gradientUnits="userSpaceOnUse">
			<stop  offset="0" style="stop-color:#F26522"/>
			<stop  offset="0.2419" style="stop-color:#F04D23"/>
			<stop  offset="0.4996" style="stop-color:#EE3724"/>
			<stop  offset="0.7542" style="stop-color:#EE2424"/>
			<stop  offset="1" style="stop-color:#ED1C24"/>
		</radialGradient>
		<path fill="url(#SVGID_14_)" d="M298.98,541.913c1.703-4.859,3.586-9.642,5.626-14.351l-21.374-7.868
			c-1.153,5.611-2.156,11.278-2.964,17.012L298.98,541.913z"/>
	</g>
	<g id="MAXX">
		<g id="Maxx_Outline">
			
				<radialGradient id="SVGID_15_" cx="75.1445" cy="575.5537" r="51.3057" gradientTransform="matrix(1 0 0 -1 0 837.7715)" gradientUnits="userSpaceOnUse">
				<stop  offset="0" style="stop-color:#FFDE17"/>
				<stop  offset="0.0608" style="stop-color:#FFCB1D"/>
				<stop  offset="0.1969" style="stop-color:#FAA422"/>
				<stop  offset="0.3346" style="stop-color:#F58323"/>
				<stop  offset="0.4714" style="stop-color:#F26723"/>
				<stop  offset="0.607" style="stop-color:#F04D24"/>
				<stop  offset="0.741" style="stop-color:#EE3724"/>
				<stop  offset="0.8728" style="stop-color:#EE2424"/>
				<stop  offset="1" style="stop-color:#ED1C24"/>
			</radialGradient>
			<polygon fill="url(#SVGID_15_)" points="42.099,291.948 67.124,233.05 62.012,291.948 95.256,291.948 135.328,238.938 
				112.788,291.948 135.025,291.948 137.548,288.948 136.437,288.948 134.998,288.948 133.558,288.948 132.119,288.948 
				130.68,288.948 129.241,288.948 127.801,288.948 126.362,288.948 124.923,288.948 123.484,288.948 122.044,288.948 
				120.605,288.948 119.167,288.948 117.727,288.948 117.323,288.948 117.727,287.999 119.167,284.613 120.605,281.229 
				122.044,277.845 123.484,274.459 124.923,271.074 126.362,267.69 127.801,264.306 129.241,260.921 130.68,257.535 
				132.119,254.151 133.558,250.767 134.998,247.382 136.437,243.997 137.876,240.612 139.315,237.228 140.754,233.843 
				141.331,232.487 136.444,232.487 136.437,232.496 134.998,234.4 133.558,236.305 132.119,238.208 130.68,240.112 
				129.241,242.016 127.801,243.92 126.362,245.824 124.923,247.728 123.484,249.632 122.044,251.536 120.605,253.439 
				119.167,255.343 117.727,257.247 116.288,259.151 114.849,261.055 113.41,262.958 111.97,264.863 110.531,266.767 
				109.092,268.67 107.653,270.574 106.213,272.479 104.774,274.382 103.335,276.286 101.896,278.189 100.457,280.094 
				99.017,281.998 97.578,283.901 96.139,285.805 94.7,287.709 93.763,288.948 93.26,288.948 91.821,288.948 90.382,288.948 
				88.943,288.948 87.503,288.948 86.064,288.948 84.625,288.948 83.186,288.948 81.747,288.948 80.308,288.948 78.869,288.948 
				77.429,288.948 75.99,288.948 74.551,288.948 73.112,288.948 71.672,288.948 70.233,288.948 68.794,288.948 67.355,288.948 
				65.916,288.948 65.283,288.948 65.916,281.664 67.355,265.08 68.794,248.502 70.184,232.487 64.104,232.487 63.037,234.997 
				61.598,238.383 60.159,241.771 58.719,245.159 57.28,248.546 55.841,251.933 54.402,255.32 52.962,258.708 51.523,262.095 
				50.084,265.481 48.645,268.87 47.206,272.257 45.767,275.644 44.328,279.031 42.888,282.418 41.449,285.806 40.114,288.948 
				40.01,288.948 38.571,288.948 37.131,288.948 35.692,288.948 34.253,288.948 32.814,288.948 31.375,288.948 29.935,288.948 
				28.496,288.948 27.057,288.948 25.618,288.948 24.178,288.948 22.739,288.948 21.3,288.948 19.861,288.948 18.421,288.948 
				16.982,288.948 15.543,288.948 14.104,288.948 13.493,288.948 14.104,287.509 15.543,284.122 16.982,280.735 18.421,277.349 
				19.861,273.961 21.3,270.573 22.739,267.187 24.178,263.8 25.618,260.412 27.057,257.024 28.496,253.638 29.935,250.251 
				31.375,246.863 32.814,243.475 34.253,240.089 35.692,236.702 37.131,233.314 37.483,232.487 34.223,232.487 8.958,291.948 			
				"/>
			
				<radialGradient id="SVGID_16_" cx="187.5508" cy="575.5537" r="42.7708" gradientTransform="matrix(1 0 0 -1 0 837.7715)" gradientUnits="userSpaceOnUse">
				<stop  offset="0" style="stop-color:#FFDE17"/>
				<stop  offset="0.0608" style="stop-color:#FFCB1D"/>
				<stop  offset="0.1969" style="stop-color:#FAA422"/>
				<stop  offset="0.3346" style="stop-color:#F58323"/>
				<stop  offset="0.4714" style="stop-color:#F26723"/>
				<stop  offset="0.607" style="stop-color:#F04D24"/>
				<stop  offset="0.741" style="stop-color:#EE3724"/>
				<stop  offset="0.8728" style="stop-color:#EE2424"/>
				<stop  offset="1" style="stop-color:#ED1C24"/>
			</radialGradient>
			<polygon fill="url(#SVGID_16_)" points="149.395,274.677 149.238,274.864 147.799,276.575 146.359,278.287 144.92,279.999 
				143.481,281.711 142.042,283.422 140.603,285.134 139.163,286.846 137.724,288.558 137.396,288.948 134.874,291.948 
				145.311,291.948 173.429,291.948 194.617,265.073 234.779,265.073 233.725,291.948 236.888,291.948 240.227,288.948 
				239.399,288.948 238.375,288.948 237.352,288.948 236.845,288.948 237.352,276.021 237.899,262.073 237.352,262.073 
				236.329,262.073 235.306,262.073 234.282,262.073 233.259,262.073 232.236,262.073 231.212,262.073 230.189,262.073 
				229.166,262.073 228.143,262.073 227.119,262.073 226.096,262.073 225.073,262.073 224.049,262.073 223.026,262.073 
				222.003,262.073 220.979,262.073 219.957,262.073 218.933,262.073 217.91,262.073 216.887,262.073 215.863,262.073 
				214.84,262.073 213.817,262.073 212.793,262.073 211.77,262.073 210.747,262.073 209.724,262.073 208.7,262.073 207.677,262.073 
				206.654,262.073 205.63,262.073 204.607,262.073 203.584,262.073 202.561,262.073 201.538,262.073 200.514,262.073 
				199.491,262.073 198.468,262.073 197.444,262.073 196.421,262.073 195.398,262.073 194.375,262.073 193.351,262.073 
				193.162,262.073 192.328,263.13 191.305,264.429 190.281,265.727 189.258,267.024 188.235,268.322 187.211,269.621 
				186.188,270.918 185.165,272.216 184.142,273.515 183.119,274.812 182.095,276.11 181.072,277.408 180.049,278.706 
				179.025,280.004 178.002,281.302 176.979,282.6 175.956,283.898 174.932,285.196 173.909,286.494 172.886,287.792 
				171.974,288.948 171.862,288.948 170.839,288.948 169.816,288.948 168.792,288.948 167.769,288.948 166.746,288.948 
				165.723,288.948 164.699,288.948 163.676,288.948 162.653,288.948 161.629,288.948 160.606,288.948 159.583,288.948 
				158.56,288.948 157.537,288.948 156.513,288.948 155.49,288.948 154.467,288.948 153.443,288.948 152.42,288.948 
				151.397,288.948 150.374,288.948 149.35,288.948 148.327,288.948 147.304,288.948 146.28,288.948 145.257,288.948 
				144.234,288.948 143.327,288.948 143.21,288.948 142.188,288.948 141.315,288.948 142.188,287.911 143.21,286.694 
				144.234,285.477 145.257,284.259 146.28,283.042 147.304,281.825 148.327,280.608 149.35,279.392 150.374,278.174 
				151.397,276.957 152.42,275.74 153.443,274.523 154.467,273.306 155.49,272.089 156.513,270.872 157.537,269.655 158.56,268.438 
				159.583,267.221 160.606,266.003 161.629,264.787 162.653,263.57 163.676,262.353 164.699,261.136 165.723,259.918 
				166.746,258.701 167.769,257.484 168.792,256.268 169.816,255.05 170.839,253.833 171.862,252.616 172.886,251.399 
				173.909,250.182 174.932,248.965 175.956,247.748 176.979,246.53 178.002,245.314 179.025,244.097 180.049,242.879 
				181.072,241.663 182.095,240.445 183.119,239.228 184.142,238.012 185.165,236.794 186.188,235.577 187.211,234.36 
				188.235,233.143 188.787,232.487 184.867,232.487 155.99,266.833 			"/>
			
				<radialGradient id="SVGID_17_" cx="406.1187" cy="575.5537" r="46.0332" gradientTransform="matrix(1 0 0 -1 0 837.7715)" gradientUnits="userSpaceOnUse">
				<stop  offset="0" style="stop-color:#FFDE17"/>
				<stop  offset="0.0608" style="stop-color:#FFCB1D"/>
				<stop  offset="0.1969" style="stop-color:#FAA422"/>
				<stop  offset="0.3346" style="stop-color:#F58323"/>
				<stop  offset="0.4714" style="stop-color:#F26723"/>
				<stop  offset="0.607" style="stop-color:#F04D24"/>
				<stop  offset="0.741" style="stop-color:#EE3724"/>
				<stop  offset="0.8728" style="stop-color:#EE2424"/>
				<stop  offset="1" style="stop-color:#ED1C24"/>
			</radialGradient>
			<polygon fill="url(#SVGID_17_)" points="378.644,264.595 378.343,264.866 377.319,265.786 376.296,266.705 375.273,267.625 
				374.25,268.544 373.226,269.464 372.203,270.383 371.18,271.303 370.156,272.222 369.133,273.141 368.11,274.061 367.086,274.98 
				366.063,275.9 365.04,276.819 364.017,277.739 362.994,278.658 361.97,279.578 360.947,280.497 359.924,281.417 358.9,282.336 
				357.877,283.256 356.854,284.175 355.831,285.095 354.807,286.014 353.784,286.934 352.761,287.853 351.737,288.772 
				351.542,288.948 348.203,291.948 381.573,291.948 392.063,291.948 427.521,258.604 433.503,291.948 460.695,291.948 
				464.034,288.948 462.771,288.948 461.454,288.948 460.136,288.948 458.819,288.948 457.502,288.948 456.185,288.948 
				454.867,288.948 453.55,288.948 452.232,288.948 450.915,288.948 449.598,288.948 448.281,288.948 446.963,288.948 
				445.646,288.948 444.329,288.948 443.011,288.948 441.694,288.948 440.377,288.948 439.06,288.948 437.742,288.948 
				436.425,288.948 436.013,288.948 435.107,283.9 433.79,276.559 432.473,269.217 431.156,261.878 429.838,254.536 
				429.496,252.628 428.521,253.545 427.204,254.784 425.886,256.023 424.569,257.262 423.251,258.5 421.935,259.739 
				420.617,260.978 419.3,262.217 417.982,263.456 416.665,264.694 415.348,265.933 414.03,267.172 412.713,268.41 411.396,269.649 
				410.079,270.888 408.761,272.126 407.444,273.365 406.126,274.604 404.809,275.843 403.492,277.081 402.175,278.32 
				400.857,279.559 399.54,280.798 398.223,282.037 396.905,283.275 395.588,284.514 394.271,285.753 392.954,286.991 
				391.636,288.23 390.873,288.948 390.319,288.948 389.001,288.948 387.684,288.948 386.367,288.948 385.049,288.948 
				383.732,288.948 382.415,288.948 381.098,288.948 379.78,288.948 378.581,288.948 378.463,288.948 377.146,288.948 
				375.828,288.948 374.511,288.948 373.194,288.948 371.876,288.948 370.559,288.948 369.242,288.948 367.924,288.948 
				366.607,288.948 365.29,288.948 363.973,288.948 362.655,288.948 361.338,288.948 360.021,288.948 358.703,288.948 
				357.386,288.948 356.069,288.948 356.03,288.948 356.069,288.914 357.386,287.73 358.703,286.546 360.021,285.363 
				361.338,284.179 362.655,282.995 363.973,281.812 365.29,280.628 366.607,279.445 367.924,278.261 369.242,277.077 
				370.559,275.894 371.876,274.71 373.194,273.526 374.511,272.342 375.828,271.159 377.146,269.975 378.463,268.792 
				379.78,267.608 381.098,266.424 382.415,265.24 383.732,264.057 385.049,262.873 386.367,261.689 387.684,260.506 
				389.001,259.322 390.319,258.138 391.636,256.955 392.954,255.771 394.271,254.588 395.588,253.404 396.905,252.22 
				398.223,251.037 399.54,249.853 400.857,248.669 402.175,247.485 403.492,246.302 404.809,245.118 406.126,243.935 
				407.444,242.751 408.761,241.567 410.079,240.383 411.396,239.2 412.713,238.016 414.03,236.833 415.348,235.649 
				416.665,234.465 417.982,233.281 418.867,232.487 414.377,232.487 381.651,261.894 			"/>
			
				<radialGradient id="SVGID_18_" cx="293.2856" cy="575.5537" r="46.0332" gradientTransform="matrix(1 0 0 -1 0 837.7715)" gradientUnits="userSpaceOnUse">
				<stop  offset="0" style="stop-color:#FFDE17"/>
				<stop  offset="0.0608" style="stop-color:#FFCB1D"/>
				<stop  offset="0.1969" style="stop-color:#FAA422"/>
				<stop  offset="0.3346" style="stop-color:#F58323"/>
				<stop  offset="0.4714" style="stop-color:#F26723"/>
				<stop  offset="0.607" style="stop-color:#F04D24"/>
				<stop  offset="0.741" style="stop-color:#EE3724"/>
				<stop  offset="0.8728" style="stop-color:#EE2424"/>
				<stop  offset="1" style="stop-color:#ED1C24"/>
			</radialGradient>
			<polygon fill="url(#SVGID_18_)" points="265.811,264.595 265.51,264.866 264.486,265.786 263.463,266.705 262.44,267.625 
				261.417,268.544 260.393,269.464 259.37,270.383 258.347,271.303 257.323,272.222 256.3,273.141 255.277,274.061 254.253,274.98 
				253.23,275.9 252.207,276.819 251.184,277.739 250.161,278.658 249.137,279.578 248.114,280.497 247.091,281.417 
				246.067,282.336 245.044,283.256 244.021,284.175 242.998,285.095 241.974,286.014 240.951,286.934 239.928,287.853 
				238.904,288.772 238.709,288.948 235.37,291.948 268.74,291.948 279.229,291.948 314.688,258.604 320.67,291.948 
				347.862,291.948 351.201,288.948 349.938,288.948 348.621,288.948 347.303,288.948 345.986,288.948 344.669,288.948 
				343.352,288.948 342.034,288.948 340.717,288.948 339.399,288.948 338.082,288.948 336.765,288.948 335.448,288.948 
				334.13,288.948 332.813,288.948 331.496,288.948 330.178,288.948 328.861,288.948 327.544,288.948 326.227,288.948 
				324.909,288.948 323.592,288.948 323.18,288.948 322.274,283.9 320.957,276.559 319.64,269.217 318.323,261.878 317.005,254.536 
				316.663,252.628 315.688,253.545 314.371,254.784 313.053,256.023 311.736,257.262 310.418,258.5 309.102,259.739 
				307.784,260.978 306.467,262.217 305.149,263.456 303.832,264.694 302.515,265.933 301.197,267.172 299.88,268.41 
				298.563,269.649 297.246,270.888 295.928,272.126 294.611,273.365 293.293,274.604 291.976,275.843 290.659,277.081 
				289.342,278.32 288.024,279.559 286.707,280.798 285.39,282.037 284.072,283.275 282.755,284.514 281.438,285.753 
				280.121,286.991 278.803,288.23 278.04,288.948 277.486,288.948 276.168,288.948 274.851,288.948 273.534,288.948 
				272.216,288.948 270.899,288.948 269.582,288.948 268.265,288.948 266.947,288.948 265.748,288.948 265.63,288.948 
				264.313,288.948 262.995,288.948 261.678,288.948 260.361,288.948 259.043,288.948 257.726,288.948 256.409,288.948 
				255.091,288.948 253.774,288.948 252.457,288.948 251.14,288.948 249.822,288.948 248.505,288.948 247.188,288.948 
				245.87,288.948 244.553,288.948 243.236,288.948 243.197,288.948 243.236,288.914 244.553,287.73 245.87,286.546 
				247.188,285.363 248.505,284.179 249.822,282.995 251.14,281.812 252.457,280.628 253.774,279.445 255.091,278.261 
				256.409,277.077 257.726,275.894 259.043,274.71 260.361,273.526 261.678,272.342 262.995,271.159 264.313,269.975 
				265.63,268.792 266.947,267.608 268.265,266.424 269.582,265.24 270.899,264.057 272.216,262.873 273.534,261.689 
				274.851,260.506 276.168,259.322 277.486,258.138 278.803,256.955 280.121,255.771 281.438,254.588 282.755,253.404 
				284.072,252.22 285.39,251.037 286.707,249.853 288.024,248.669 289.342,247.485 290.659,246.302 291.976,245.118 
				293.293,243.935 294.611,242.751 295.928,241.567 297.246,240.383 298.563,239.2 299.88,238.016 301.197,236.833 
				302.515,235.649 303.832,234.465 305.149,233.281 306.034,232.487 301.544,232.487 268.818,261.894 			"/>
		</g>
		
			<radialGradient id="SVGID_19_" cx="109.0674" cy="605.7646" r="77.7081" gradientTransform="matrix(1 0 0 -1 0 837.7715)" gradientUnits="userSpaceOnUse">
			<stop  offset="0" style="stop-color:#F26522"/>
			<stop  offset="0.2419" style="stop-color:#F04D23"/>
			<stop  offset="0.4996" style="stop-color:#EE3724"/>
			<stop  offset="0.7542" style="stop-color:#EE2424"/>
			<stop  offset="1" style="stop-color:#ED1C24"/>
		</radialGradient>
		<path fill="url(#SVGID_19_)" d="M150.203,291.948h-29.415l26.415-62.124l-46.961,62.124H69.38l5.787-66.672l-28.328,66.672H16.958
			l50.938-119.883h41.172l-7.619,76.895l58.028-76.895h41.7L150.203,291.948z"/>
		
			<radialGradient id="SVGID_20_" cx="209.4688" cy="605.7646" r="62.7772" gradientTransform="matrix(1 0 0 -1 0 837.7715)" gradientUnits="userSpaceOnUse">
			<stop  offset="0" style="stop-color:#F26522"/>
			<stop  offset="0.2419" style="stop-color:#F04D23"/>
			<stop  offset="0.4996" style="stop-color:#EE3724"/>
			<stop  offset="0.7542" style="stop-color:#EE2424"/>
			<stop  offset="1" style="stop-color:#ED1C24"/>
		</radialGradient>
		<path fill="url(#SVGID_20_)" d="M274.646,291.948h-33.477l1.055-26.875h-42.45l-21.188,26.875h-34.607l100.795-119.883h30.185
			L274.646,291.948z M222.195,237.339h21.122l1.133-27.773L222.195,237.339z"/>
		
			<radialGradient id="SVGID_21_" cx="330.9941" cy="605.7646" r="73.1462" gradientTransform="matrix(1 0 0 -1 0 837.7715)" gradientUnits="userSpaceOnUse">
			<stop  offset="0" style="stop-color:#F26522"/>
			<stop  offset="0.2419" style="stop-color:#F04D23"/>
			<stop  offset="0.4996" style="stop-color:#EE3724"/>
			<stop  offset="0.7542" style="stop-color:#EE2424"/>
			<stop  offset="1" style="stop-color:#ED1C24"/>
		</radialGradient>
		<path fill="url(#SVGID_21_)" d="M350.92,231.88l14.188,60.068h-35.779l-6.25-34.832l-37.041,34.832h-39.351l68.303-61.374
			l-14.022-58.509h35.193l6.913,31.665l33.741-31.665h38.487L350.92,231.88z"/>
		
			<radialGradient id="SVGID_22_" cx="443.4858" cy="605.7646" r="73.1465" gradientTransform="matrix(1 0 0 -1 0 837.7715)" gradientUnits="userSpaceOnUse">
			<stop  offset="0" style="stop-color:#F26522"/>
			<stop  offset="0.2419" style="stop-color:#F04D23"/>
			<stop  offset="0.4996" style="stop-color:#EE3724"/>
			<stop  offset="0.7542" style="stop-color:#EE2424"/>
			<stop  offset="1" style="stop-color:#ED1C24"/>
		</radialGradient>
		<path fill="url(#SVGID_22_)" d="M463.412,231.88l14.187,60.068H441.82l-6.25-34.832l-37.041,34.832h-39.352l68.304-61.374
			l-14.022-58.509h35.193l6.913,31.665l33.74-31.665h38.488L463.412,231.88z"/>
	</g>
</g>
</svg>
